NotoSerif-SemiBoldItalic.ufo
<glyph name="cent" format="2">
  <advance width="559"/>
  <unicode hex="00A2"/>
  <outline>
    <contour>
      <point x="235" y="0" type="line"/>
      <point x="297" y="0" type="line"/>
      <point x="314" y="82" type="line"/>
      <point x="446" y="86"/>
      <point x="505" y="146"/>
      <point x="505" y="196" type="curve" smooth="yes"/>
      <point x="505" y="216"/>
      <point x="497" y="232"/>
      <point x="489" y="240" type="curve"/>
      <point x="458" y="198"/>
      <point x="416" y="158"/>
      <point x="330" y="157" type="curve"/>
      <point x="416" y="564" type="line"/>
      <point x="441" y="541"/>
      <point x="453" y="499"/>
      <point x="453" y="451" type="curve"/>
      <point x="541" y="451"/>
      <point x="575" y="494"/>
      <point x="575" y="535" type="curve" smooth="yes"/>
      <point x="575" y="588"/>
      <point x="532" y="634"/>
      <point x="432" y="640" type="curve"/>
      <point x="448" y="714" type="line"/>
      <point x="386" y="714" type="line"/>
      <point x="370" y="638" type="line"/>
      <point x="171" y="616"/>
      <point x="67" y="428"/>
      <point x="67" y="289" type="curve" smooth="yes"/>
      <point x="67" y="167"/>
      <point x="147" y="100"/>
      <point x="253" y="85" type="curve"/>
    </contour>
    <contour>
      <point x="272" y="174" type="line"/>
      <point x="238" y="194"/>
      <point x="220" y="233"/>
      <point x="220" y="287" type="curve" smooth="yes"/>
      <point x="220" y="384"/>
      <point x="272" y="559"/>
      <point x="357" y="579" type="curve"/>
    </contour>
  </outline>
</glyph>
<glyph name="Tbar" format="2">
  <advance width="653"/>
  <unicode hex="0166"/>
  <anchor x="270" y="0" name="bottom"/>
  <anchor x="422" y="714" name="top"/>
  <anchor x="365" y="357" name="center"/>
  <anchor x="728" y="714" name="topright"/>
  <outline>
    <contour>
      <point x="120" y="329" type="line"/>
      <point x="265" y="329" type="line"/>
      <point x="423" y="329" type="line"/>
      <point x="567" y="329" type="line"/>
      <point x="578" y="382" type="line"/>
      <point x="434" y="382" type="line"/>
      <point x="276" y="382" type="line"/>
      <point x="131" y="382" type="line"/>
    </contour>
    <component base="T"/>
  </outline>
</glyph>
<glyph name="tbar" format="2">
  <advance width="417"/>
  <unicode hex="0167"/>
  <anchor x="152" y="0" name="bottom"/>
  <anchor x="292" y="659" name="top"/>
  <anchor x="266" y="268" name="center"/>
  <anchor x="454" y="536" name="topright"/>
  <outline>
    <contour>
      <point x="28" y="281" type="line"/>
      <point x="96" y="281" type="line"/>
      <point x="249" y="281" type="line"/>
      <point x="361" y="281" type="line"/>
      <point x="372" y="334" type="line"/>
      <point x="260" y="334" type="line"/>
      <point x="108" y="334" type="line"/>
      <point x="39" y="334" type="line"/>
    </contour>
    <component base="t"/>
  </outline>
</glyph>
<glyph name="florin" format="2">
  <advance width="499"/>
  <unicode hex="0192"/>
  <anchor x="95" y="-12" name="bottom"/>
  <anchor x="504" y="770" name="top"/>
  <anchor x="676" y="770" name="topright"/>
  <outline>
    <contour>
      <point x="95" y="-12" type="curve" smooth="yes"/>
      <point x="232" y="-12"/>
      <point x="305" y="55"/>
      <point x="340" y="220" type="curve" smooth="yes"/>
      <point x="393" y="468" type="line"/>
      <point x="520" y="468" type="line"/>
      <point x="534" y="536" type="line"/>
      <point x="408" y="536" type="line"/>
      <point x="421" y="600" type="line" smooth="yes"/>
      <point x="435" y="675"/>
      <point x="455" y="711"/>
      <point x="497" y="711" type="curve" smooth="yes"/>
      <point x="533" y="711"/>
      <point x="543" y="664"/>
      <point x="543" y="613" type="curve"/>
      <point x="618" y="613"/>
      <point x="658" y="639"/>
      <point x="658" y="683" type="curve" smooth="yes"/>
      <point x="658" y="732"/>
      <point x="604" y="770"/>
      <point x="501" y="770" type="curve" smooth="yes"/>
      <point x="366" y="770"/>
      <point x="295" y="705"/>
      <point x="264" y="573" type="curve" smooth="yes"/>
      <point x="256" y="536" type="line"/>
      <point x="160" y="515" type="line"/>
      <point x="150" y="468" type="line"/>
      <point x="241" y="468" type="line"/>
      <point x="182" y="193" type="line" smooth="yes"/>
      <point x="159" y="88"/>
      <point x="144" y="47"/>
      <point x="99" y="47" type="curve" smooth="yes"/>
      <point x="63" y="47"/>
      <point x="53" y="94"/>
      <point x="53" y="145" type="curve"/>
      <point x="-12" y="145"/>
      <point x="-47" y="119"/>
      <point x="-47" y="75" type="curve" smooth="yes"/>
      <point x="-47" y="26"/>
      <point x="2" y="-12"/>
    </contour>
  </outline>
</glyph>
<glyph name="uni0197" format="2">
  <advance width="401"/>
  <unicode hex="0197"/>
  <anchor x="144" y="0" name="bottom"/>
  <anchor x="296" y="714" name="top"/>
  <anchor x="476" y="714" name="topright"/>
  <outline>
    <contour>
      <point x="45" y="342" type="line"/>
      <point x="403" y="342" type="line"/>
      <point x="416" y="403" type="line"/>
      <point x="58" y="403" type="line"/>
    </contour>
    <component base="I"/>
  </outline>
</glyph>
<glyph name="uni019A" format="2">
  <advance width="354"/>
  <unicode hex="019A"/>
  <anchor x="120" y="0" name="bottom"/>
  <anchor x="282" y="760" name="top"/>
  <anchor x="234" y="268" name="center"/>
  <anchor x="439" y="760" name="topright"/>
  <outline>
    <contour>
      <point x="2" y="358" type="line"/>
      <point x="358" y="358" type="line"/>
      <point x="371" y="416" type="line"/>
      <point x="15" y="416" type="line"/>
    </contour>
    <component base="l"/>
  </outline>
</glyph>
<glyph name="uni0249" format="2">
  <advance width="338"/>
  <unicode hex="0249"/>
  <anchor x="61" y="-240" name="bottom"/>
  <anchor x="276" y="770" name="top"/>
  <anchor x="425" y="770" name="topright"/>
  <outline>
    <contour>
      <point x="-2" y="250" type="line"/>
      <point x="332" y="250" type="line"/>
      <point x="343" y="306" type="line"/>
      <point x="9" y="306" type="line"/>
    </contour>
    <component base="j"/>
  </outline>
</glyph>
<glyph name="uni024E" format="2">
  <advance width="693"/>
  <unicode hex="024E"/>
  <anchor x="290" y="0" name="bottom"/>
  <anchor x="442" y="714" name="top"/>
  <anchor x="768" y="714" name="topright"/>
  <outline>
    <contour>
      <point x="66" y="497" type="line"/>
      <point x="742" y="497" type="line"/>
      <point x="754" y="556" type="line"/>
      <point x="78" y="556" type="line"/>
    </contour>
    <component base="Y"/>
  </outline>
</glyph>
<glyph name="uni02A2" format="2">
  <advance width="540"/>
  <unicode hex="02A2"/>
  <anchor x="213" y="0" name="bottom"/>
  <anchor x="376" y="766" name="top"/>
  <outline>
    <contour>
      <point x="82" y="168" type="line"/>
      <point x="437" y="168" type="line"/>
      <point x="450" y="226" type="line"/>
      <point x="95" y="226" type="line"/>
    </contour>
    <component base="uni0295"/>
  </outline>
</glyph>
<glyph name="uni03FC" format="2">
  <advance width="618"/>
  <unicode hex="03FC"/>
  <anchor x="201" y="-240" name="bottom"/>
  <anchor x="366" y="536" name="top"/>
  <outline>
    <contour>
      <point x="-100" y="-135" type="line"/>
      <point x="306" y="-135" type="line"/>
      <point x="319" y="-77" type="line"/>
      <point x="-87" y="-77" type="line"/>
    </contour>
    <component base="rho"/>
  </outline>
</glyph>
<glyph name="afii10088" format="2">
  <advance width="683"/>
  <unicode hex="0446"/>
  <anchor x="237" y="-228" name="bottom"/>
  <anchor x="399" y="536" name="top"/>
  <anchor x="710" y="536" name="topright"/>
  <outline>
    <contour>
      <point x="495" y="-228" type="curve" smooth="yes"/>
      <point x="593" y="-228"/>
      <point x="620" y="-140"/>
      <point x="657" y="59" type="curve"/>
      <point x="633" y="93" type="line"/>
      <point x="581" y="7" type="line"/>
      <point x="541" y="-104"/>
      <point x="500" y="-149"/>
      <point x="442" y="-149" type="curve" smooth="yes"/>
      <point x="412" y="-149"/>
      <point x="388" y="-142"/>
      <point x="368" y="-136" type="curve"/>
      <point x="347" y="-190" type="line"/>
      <point x="386" y="-211"/>
      <point x="426" y="-228"/>
    </contour>
    <component base="u"/>
  </outline>
</glyph>
<glyph name="uni048F" format="2">
  <advance width="623"/>
  <unicode hex="048F"/>
  <anchor x="94" y="-240" name="bottom"/>
  <anchor x="369" y="536" name="top"/>
  <anchor x="660" y="536" name="topright"/>
  <outline>
    <contour>
      <point x="396" y="-74" type="line"/>
      <point x="439" y="-42" type="line"/>
      <point x="297" y="161" type="line"/>
      <point x="254" y="129" type="line"/>
    </contour>
    <component base="p"/>
  </outline>
</glyph>
<glyph name="uni04AD" format="2">
  <advance width="969"/>
  <unicode hex="04AD"/>
  <anchor x="380" y="-225" name="bottom"/>
  <anchor x="545" y="549" name="top"/>
  <anchor x="1006" y="536" name="topright"/>
  <outline>
    <contour>
      <point x="791" y="-225" type="curve" smooth="yes"/>
      <point x="889" y="-225"/>
      <point x="916" y="-137"/>
      <point x="953" y="62" type="curve"/>
      <point x="929" y="96" type="line"/>
      <point x="877" y="10" type="line"/>
      <point x="837" y="-101"/>
      <point x="796" y="-146"/>
      <point x="738" y="-146" type="curve" smooth="yes"/>
      <point x="708" y="-146"/>
      <point x="684" y="-139"/>
      <point x="664" y="-133" type="curve"/>
      <point x="643" y="-187" type="line"/>
      <point x="682" y="-208"/>
      <point x="722" y="-225"/>
    </contour>
    <component base="m"/>
  </outline>
</glyph>
<glyph name="uni04B9" format="2">
  <advance width="653"/>
  <unicode hex="04B9"/>
  <anchor x="270" y="0" name="bottom"/>
  <anchor x="384" y="536" name="top"/>
  <outline>
    <contour>
      <point x="246" y="109" type="line"/>
      <point x="299" y="109" type="line"/>
      <point x="353" y="363" type="line"/>
      <point x="300" y="363" type="line"/>
    </contour>
    <component base="afii10089"/>
  </outline>
</glyph>
<glyph name="uni04BF" format="2">
  <advance width="666"/>
  <unicode hex="04BF"/>
  <anchor x="231" y="-210" name="bottom"/>
  <anchor x="390" y="536" name="top"/>
  <outline>
    <contour>
      <point x="322" y="-210" type="curve"/>
      <point x="385" y="-210" type="line"/>
      <point x="413" y="-85"/>
      <point x="426" y="-29"/>
      <point x="506" y="9" type="curve"/>
      <point x="275" y="16" type="line"/>
      <point x="324" y="-10"/>
      <point x="336" y="-56"/>
      <point x="336" y="-103" type="curve" smooth="yes"/>
      <point x="336" y="-138"/>
      <point x="328" y="-177"/>
    </contour>
    <component base="uni04BD"/>
  </outline>
</glyph>
<glyph name="uni1ABA" format="2">
  <unicode hex="1ABA"/>
  <anchor x="-422" y="0" name="_bottom"/>
  <anchor x="-445" y="-284" name="bottom"/>
  <outline>
    <contour>
      <point x="-450" y="-240" type="line"/>
      <point x="-350" y="26" type="line"/>
      <point x="-418" y="48" type="line"/>
      <point x="-518" y="-217" type="line"/>
    </contour>
    <contour>
      <point x="-479" y="-284" type="curve" smooth="yes"/>
      <point x="-441" y="-284"/>
      <point x="-414" y="-259"/>
      <point x="-414" y="-219" type="curve" smooth="yes"/>
      <point x="-414" y="-179"/>
      <point x="-441" y="-154"/>
      <point x="-479" y="-154" type="curve" smooth="yes"/>
      <point x="-517" y="-154"/>
      <point x="-544" y="-179"/>
      <point x="-544" y="-219" type="curve" smooth="yes"/>
      <point x="-544" y="-259"/>
      <point x="-517" y="-284"/>
    </contour>
  </outline>
</glyph>
<glyph name="uni1D2F" format="2">
  <advance width="437"/>
  <unicode hex="1D2F"/>
  <anchor x="234.35" y="287.0" name="bottom"/>
  <anchor x="333.15000000000003" y="715.4" name="top"/>
  <anchor x="538.55" y="715.4" name="topright"/>
  <outline>
    <contour>
      <point x="79" y="493" type="line"/>
      <point x="503" y="493" type="line"/>
      <point x="511" y="530" type="line"/>
      <point x="87" y="530" type="line"/>
    </contour>
    <component base="B" xScale="0.65" yScale="0.6" xOffset="53" yOffset="287"/>
  </outline>
</glyph>
<glyph name="uni1D94" format="2">
  <advance width="544"/>
  <unicode hex="1D94"/>
  <anchor x="203" y="0" name="bottom"/>
  <anchor x="307" y="536" name="top"/>
  <outline>
    <contour>
      <point x="53" y="-197" type="curve" smooth="yes"/>
      <point x="107" y="-197"/>
      <point x="149" y="-172"/>
      <point x="149" y="-130" type="curve" smooth="yes"/>
      <point x="149" y="-120"/>
      <point x="148" y="-107"/>
      <point x="143" y="-95" type="curve"/>
      <point x="124" y="-106"/>
      <point x="101" y="-113"/>
      <point x="79" y="-113" type="curve" smooth="yes"/>
      <point x="48" y="-113"/>
      <point x="34" y="-98"/>
      <point x="34" y="-66" type="curve" smooth="yes"/>
      <point x="34" y="-56"/>
      <point x="35" y="-44"/>
      <point x="38" y="-30" type="curve" smooth="yes"/>
      <point x="52" y="38" type="line"/>
      <point x="-6" y="104" type="line"/>
      <point x="-30" y="-39" type="line"/>
      <point x="-34" y="-65"/>
      <point x="-38" y="-87"/>
      <point x="-38" y="-99" type="curve" smooth="yes"/>
      <point x="-38" y="-161"/>
      <point x="-5" y="-197"/>
    </contour>
    <component base="afii10073"/>
  </outline>
</glyph>
<glyph name="uni20A5" format="2">
  <advance width="969"/>
  <unicode hex="20A5"/>
  <anchor x="428" y="0" name="bottom"/>
  <anchor x="542" y="536" name="top"/>
  <anchor x="1006" y="536" name="topright"/>
  <outline>
    <contour>
      <point x="166" y="-121" type="line"/>
      <point x="238" y="-121" type="line"/>
      <point x="765" y="666" type="line"/>
      <point x="693" y="666" type="line"/>
    </contour>
    <component base="m"/>
  </outline>
</glyph>
<glyph name="uniA745" format="2">
  <advance width="597"/>
  <unicode hex="A745"/>
  <anchor x="242" y="0" name="bottom"/>
  <anchor x="404" y="760" name="top"/>
  <anchor x="682" y="760" name="topright"/>
  <outline>
    <contour>
      <point x="259" y="86" type="line"/>
      <point x="520" y="251" type="line"/>
      <point x="493" y="298" type="line"/>
      <point x="234" y="133" type="line"/>
    </contour>
    <contour>
      <point x="65" y="589" type="line"/>
      <point x="398" y="589" type="line"/>
      <point x="410" y="642" type="line"/>
      <point x="77" y="642" type="line"/>
    </contour>
    <component base="k"/>
  </outline>
</glyph>
<glyph name="uniA750" format="2">
  <advance width="663"/>
  <unicode hex="A750"/>
  <anchor x="152" y="0" name="bottom"/>
  <anchor x="427" y="714" name="top"/>
  <anchor x="738" y="714" name="topright"/>
  <outline>
    <contour>
      <point x="6" y="142" type="line"/>
      <point x="371" y="142" type="line"/>
      <point x="384" y="199" type="line"/>
      <point x="19" y="199" type="line"/>
    </contour>
    <component base="P"/>
  </outline>
</glyph>
<glyph name="uniA7A3" format="2">
  <advance width="597"/>
  <unicode hex="A7A3"/>
  <anchor x="242" y="0" name="bottom"/>
  <anchor x="404" y="760" name="top"/>
  <anchor x="682" y="760" name="topright"/>
  <outline>
    <contour>
      <point x="-34" y="62" type="line"/>
      <point x="584" y="208" type="line"/>
      <point x="596" y="266" type="line"/>
      <point x="-22" y="120" type="line"/>
    </contour>
    <component base="k"/>
  </outline>
</glyph>
<glyph name="uniA7A6" format="2">
  <advance width="707"/>
  <unicode hex="A7A6"/>
  <anchor x="297" y="0" name="bottom"/>
  <anchor x="449" y="714" name="top"/>
  <anchor x="782" y="714" name="topright"/>
  <outline>
    <contour>
      <point x="54" y="402" type="line"/>
      <point x="766" y="542" type="line"/>
      <point x="778" y="600" type="line"/>
      <point x="66" y="460" type="line"/>
    </contour>
    <component base="R"/>
  </outline>
</glyph>
<glyph name="uniFE2A" format="2">
  <unicode hex="FE2A"/>
  <anchor x="-57" y="0" name="_bottom"/>
  <outline>
    <contour>
      <point x="114" y="-202" type="curve" smooth="yes"/>
      <point x="210" y="-202"/>
      <point x="287" y="-150"/>
      <point x="328" y="-61" type="curve"/>
      <point x="272" y="-61" type="line"/>
      <point x="237" y="-107"/>
      <point x="187" y="-130"/>
      <point x="132" y="-130" type="curve" smooth="yes"/>
      <point x="83" y="-130"/>
      <point x="22" y="-117"/>
      <point x="-76" y="-91" type="curve"/>
      <point x="-92" y="-171" type="line"/>
      <point x="-21" y="-192"/>
      <point x="49" y="-202"/>
    </contour>
  </outline>
</glyph>
<glyph name="oslash.sc" format="2">
  <advance width="682"/>
  <anchor x="287" y="0" name="bottom"/>
  <anchor x="409" y="571" name="top"/>
  <anchor x="341" y="286" name="center"/>
  <anchor x="723" y="571" name="topright"/>
  <outline>
    <contour>
      <point x="75" y="-32" type="line"/>
      <point x="139" y="-32" type="line"/>
      <point x="646" y="604" type="line"/>
      <point x="583" y="604" type="line"/>
    </contour>
    <component base="o.sc"/>
  </outline>
</glyph>
<glyph name="uni1D24.old" format="2">
  <advance width="462"/>
  <anchor x="174" y="0" name="bottom"/>
  <anchor x="288" y="536" name="top"/>
  <outline>
    <contour>
      <point x="199" y="-8" type="curve" smooth="yes"/>
      <point x="322" y="-8"/>
      <point x="405" y="45"/>
      <point x="405" y="102" type="curve" smooth="yes"/>
      <point x="405" y="122"/>
      <point x="383" y="142"/>
      <point x="371" y="151" type="curve"/>
      <point x="344" y="116"/>
      <point x="289" y="51"/>
      <point x="196" y="51" type="curve" smooth="yes"/>
      <point x="148" y="51"/>
      <point x="124" y="73"/>
      <point x="124" y="105" type="curve" smooth="yes"/>
      <point x="124" y="161"/>
      <point x="176" y="182"/>
      <point x="297" y="233" type="curve" smooth="yes"/>
      <point x="402" y="277"/>
      <point x="462" y="326"/>
      <point x="462" y="415" type="curve" smooth="yes"/>
      <point x="462" y="494"/>
      <point x="394" y="544"/>
      <point x="292" y="544" type="curve" smooth="yes"/>
      <point x="163" y="544"/>
      <point x="96" y="497"/>
      <point x="96" y="440" type="curve" smooth="yes"/>
      <point x="96" y="407"/>
      <point x="129" y="384"/>
      <point x="200" y="384" type="curve"/>
      <point x="213" y="453"/>
      <point x="242" y="485"/>
      <point x="290" y="485" type="curve" smooth="yes"/>
      <point x="326" y="485"/>
      <point x="350" y="470"/>
      <point x="350" y="435" type="curve" smooth="yes"/>
      <point x="350" y="394"/>
      <point x="313" y="367"/>
      <point x="200" y="322" type="curve" smooth="yes"/>
      <point x="74" y="272"/>
      <point x="7" y="213"/>
      <point x="7" y="123" type="curve" smooth="yes"/>
      <point x="7" y="43"/>
      <point x="75" y="-8"/>
    </contour>
  </outline>
</glyph>
